<svg width="184" height="24" viewBox="0 0 184 24" fill="none" xmlns="http://www.w3.org/2000/svg">
<path d="M135.45 6.41614C130.174 6.41614 126.449 10.1354 126.449 15.1983C126.449 20.2611 130.174 23.9804 135.45 23.9804C139.341 23.9804 142.383 21.9552 143.67 18.8786H141.203C140.121 20.8063 138.092 21.8871 135.45 21.8871C131.695 21.8871 129.092 19.4238 128.789 15.9382H144.382V15.1983C144.382 10.1354 140.735 6.41614 135.45 6.41614ZM128.858 13.9131C129.365 10.6319 131.968 8.50944 135.459 8.50944C138.843 8.50944 141.486 10.5346 142.022 13.9131H128.858Z" fill="#0068FF"/>
<path d="M155.343 8.50944C158.385 8.50944 160.726 10.1354 161.633 12.6279H163.934C162.949 8.90862 159.673 6.41614 155.343 6.41614C150.067 6.41614 146.342 10.1354 146.342 15.1983C146.342 20.2611 150.067 23.9804 155.343 23.9804C159.673 23.9804 162.959 21.4782 163.934 17.7686H161.633C160.716 20.2709 158.385 21.8871 155.343 21.8871C151.354 21.8871 148.644 19.0538 148.644 15.1983C148.653 11.3524 151.354 8.50944 155.343 8.50944Z" fill="#0068FF"/>
<path d="M36.3931 15.5684C36.3931 19.6577 34.0234 21.8873 30.4056 21.8873C26.9535 21.8873 24.6326 19.8524 24.4376 16.1137V14.6337C24.4278 14.4585 24.4181 14.2735 24.4181 14.0885V13.9912V12.5112C24.3011 10.048 23.4917 8.15912 22.1655 6.85446L22.1557 6.84473V8.32464V12.5891V14.069V15.5684C22.1557 15.7826 22.1655 15.9871 22.1752 16.1916C22.2142 17.097 22.3507 17.9343 22.575 18.684C22.5848 18.7035 22.5848 18.723 22.5945 18.7327C22.6238 18.8301 22.6628 18.9372 22.692 19.0345C22.7018 19.0637 22.7115 19.093 22.7213 19.1222C22.7506 19.2098 22.7896 19.2974 22.8188 19.385C22.8383 19.424 22.8481 19.4629 22.8676 19.5019C22.8968 19.5798 22.9358 19.6577 22.9748 19.7356C22.9943 19.7745 23.0138 19.8232 23.0333 19.8621C23.0724 19.94 23.1016 20.0082 23.1406 20.0763C23.1601 20.125 23.1894 20.1639 23.2089 20.2029C23.2479 20.271 23.2771 20.3392 23.3161 20.3976C23.3454 20.4463 23.3747 20.4852 23.3942 20.5339C23.4332 20.5923 23.4722 20.6605 23.5112 20.7189C23.5404 20.7676 23.5697 20.8065 23.6087 20.8552C23.6477 20.9136 23.6867 20.9623 23.7257 21.0207C23.7647 21.0694 23.794 21.1181 23.833 21.1571C23.872 21.2057 23.911 21.2544 23.95 21.3128C23.989 21.3615 24.028 21.4102 24.067 21.4491C24.106 21.4978 24.145 21.5368 24.184 21.5854C24.2328 21.6341 24.2816 21.6828 24.3303 21.7315C24.3693 21.7704 24.4083 21.8094 24.4376 21.8483C25.8808 23.2503 27.9482 23.9708 30.4056 23.9708C35.3497 23.9708 38.6652 21.0986 38.6652 15.5587V6.84473H36.4028V15.5684H36.3931Z" fill="#292929"/>
<path d="M58.4706 14.6434C58.4316 13.7379 58.2951 12.9006 58.0708 12.1509C58.061 12.1315 58.061 12.112 58.0513 12.1023C58.022 12.0049 57.983 11.8978 57.9538 11.8004C57.944 11.7712 57.9343 11.742 57.9245 11.7128C57.8953 11.6252 57.8562 11.5375 57.827 11.4499C57.8075 11.411 57.7977 11.372 57.7782 11.3331C57.749 11.2552 57.71 11.1773 57.671 11.0994C57.6515 11.0605 57.632 11.0118 57.6125 10.9728C57.5735 10.9047 57.5442 10.8268 57.5052 10.7586C57.4857 10.71 57.4564 10.671 57.4369 10.6321C57.3979 10.5639 57.3687 10.4958 57.3297 10.4373C57.3004 10.3887 57.2712 10.3497 57.2517 10.301C57.2126 10.2426 57.1736 10.1745 57.1346 10.1161C57.1054 10.0674 57.0761 10.0284 57.0371 9.97974C56.9981 9.92132 56.9591 9.87265 56.9201 9.81423C56.8811 9.76555 56.8518 9.7266 56.8128 9.67792C56.7738 9.62924 56.7348 9.58056 56.6958 9.52214C56.6568 9.47346 56.6178 9.42477 56.5788 9.38583C56.5398 9.33715 56.5008 9.2982 56.4618 9.24952C56.413 9.20084 56.3643 9.15216 56.3252 9.10348C56.2862 9.06453 56.2472 9.02559 56.2082 8.98664C54.765 7.58462 52.6976 6.86414 50.2402 6.86414C45.2961 6.86414 41.9806 9.73634 41.9806 15.2763V23.9902H44.243V15.2763C44.243 11.1578 46.6126 8.95743 50.2305 8.95743C53.6826 8.95743 56.0034 10.9631 56.1985 14.731V16.211C56.2082 16.3862 56.218 16.5712 56.218 16.7562V16.8536V18.3335C56.335 20.7967 57.1444 22.6856 58.4706 23.9902L58.4804 24V22.5201V18.2556V16.7757V15.286C58.4804 15.0523 58.4804 14.8479 58.4706 14.6434Z" fill="#292929"/>
<path d="M64.6921 7.14642V5.66651C64.5751 3.20323 63.7754 1.30466 62.4395 0V23.9804H64.7018V15.0036V13.5237V9.2592V7.77928C64.6921 7.60403 64.6823 7.41904 64.6823 7.23405V7.14642H64.6921Z" fill="#292929"/>
<path d="M70.426 0.603638C69.441 0.603638 68.6999 1.34362 68.6999 2.327C68.6999 3.31039 69.441 4.05037 70.426 4.05037C71.4109 4.05037 72.1521 3.31039 72.1521 2.327C72.1521 1.35335 71.4109 0.603638 70.426 0.603638Z" fill="#292929"/>
<path d="M71.5669 14.5361V14.4388V12.9589C71.4498 10.4956 70.6405 8.60676 69.3045 7.3021L69.2947 7.29236V8.77227V13.0368V14.5167C69.2947 14.5751 69.3045 14.6432 69.3045 14.7017V23.9803H71.5669V22.2862L71.5766 22.296V20.8258V16.5613V15.0814C71.5766 15.023 71.5669 14.9548 71.5669 14.8964C71.5669 14.7698 71.5669 14.653 71.5669 14.5361Z" fill="#292929"/>
<path d="M94.3078 6.85425C91.5676 6.85425 89.3344 8.13944 88.2813 10.6027C87.1988 8.13944 84.9657 6.85425 82.2548 6.85425C78.3931 6.85425 75.4871 9.24937 75.4871 14.2149V23.9804H77.7495V14.2246C77.7495 10.6806 79.7096 8.95728 82.4205 8.95728C85.1315 8.95728 87.1598 10.7488 87.1598 14.2246V23.9901H89.4222V14.2246C89.4222 10.7488 91.4213 8.95728 94.1225 8.95728C96.6969 8.95728 98.5887 10.5151 98.774 13.6988V14.7212V16.2011C98.7838 16.3763 98.7935 16.5613 98.7935 16.7463V16.8437V18.3236C98.9105 20.7771 99.7102 22.6757 101.046 23.9706C101.056 23.9804 101.056 23.9804 101.066 23.9901V22.5102V18.2457V16.7658V14.2246C101.075 9.25911 98.1694 6.85425 94.3078 6.85425Z" fill="#292929"/>
<path d="M106.657 3.97436C107.569 3.69854 108.085 2.73645 107.809 1.8255C107.532 0.914541 106.569 0.399668 105.656 0.675497C104.744 0.951325 104.228 1.9134 104.505 2.82436C104.781 3.73532 105.744 4.25019 106.657 3.97436Z" fill="#292929"/>
<path d="M107.307 14.4387V12.9587C107.19 10.4955 106.38 8.5969 105.044 7.29224V8.77215V13.0366V14.5166V23.9802H107.307V22.2861C107.316 22.2958 107.316 22.2958 107.326 22.3056V20.8257V16.5612V15.0813C107.316 14.906 107.307 14.721 107.307 14.536V14.4387Z" fill="#292929"/>
<path d="M122.09 17.0289V17.3989C122.09 20.4755 120.364 21.8873 117.789 21.8873C115.186 21.8873 113.489 20.4366 113.489 17.3989V15.9384C113.499 15.9482 113.499 15.9482 113.509 15.9579V14.478V10.2135V8.92832H123.338V6.86424H113.489V6.61109C113.372 4.14782 112.563 2.24924 111.227 0.94458V2.42449V6.68898V8.1689V17.3989C111.227 21.7899 113.899 23.9903 117.789 23.9903C121.651 23.9903 124.284 21.7899 124.284 17.3989V17.0289H122.09Z" fill="#0068FF"/>
<path d="M175.782 6.85434C172.886 6.85434 170.663 8.12979 169.473 10.5054V9.2592V7.77928C169.463 7.60403 169.453 7.42878 169.453 7.24379V7.14643V5.66651C169.336 3.20323 168.527 1.30466 167.191 0V1.47991V5.7444V7.22431V23.9902H169.453V15.2762C169.453 15.1789 169.453 15.0912 169.463 15.0036L169.473 15.0133V14.7407C169.678 11.0215 172.018 8.95737 175.441 8.95737C179.059 8.95737 181.428 11.1578 181.428 15.2762V23.9902H183.691V15.2762C183.701 9.56102 180.248 6.85434 175.782 6.85434Z" fill="#0068FF"/>
<path d="M7.13818 14.0008C7.12843 14.215 7.11867 14.4292 7.11867 14.6531V15.617C7.10892 15.802 7.09917 15.987 7.09917 16.1817V16.2791V16.4349V17.8077C6.98215 20.3781 6.17277 22.3448 4.83679 23.7079C5.70469 23.3476 6.47507 22.8316 7.11867 22.1793C8.45465 20.8259 9.27379 18.8495 9.38105 16.2791C9.39081 16.0649 9.40056 15.8507 9.40056 15.6268V14.1079V14.0689V14.0105V12.4722C9.51758 9.90183 10.327 7.92536 11.6629 6.57202C10.795 6.93226 10.0344 7.43855 9.40056 8.09088C8.06458 9.45396 7.2552 11.4304 7.13818 14.0008Z" fill="#0068FF"/>
<path d="M2.31115 8.1008C0.975168 9.45415 0.156027 11.4306 0.0487584 14.001C0.0390067 14.2152 0.029255 14.4294 0.029255 14.6533V15.6172C0.0195033 16.5325 0.00975168 17.4477 0 18.3629C0.458329 17.8761 1.13119 17.0582 1.63828 15.8704C1.83332 15.403 2.28189 14.2444 2.3209 12.7158C2.3209 12.6282 2.3209 12.5406 2.3209 12.4627V12.4529C2.43792 9.90202 3.24731 7.93529 4.58329 6.59167C3.71539 6.95192 2.95476 7.45821 2.31115 8.1008Z" fill="#0068FF"/>
<path d="M14.8809 14.4093C14.6859 14.8767 14.2373 16.0353 14.1983 17.5639C14.1983 17.6515 14.1983 17.7391 14.1983 17.817V17.8365C14.0813 20.3874 13.2719 22.3541 11.9359 23.6977C12.7941 23.3375 13.5644 22.8312 14.1983 22.1789C15.5343 20.8255 16.3534 18.8491 16.4607 16.2787C16.4704 16.0645 16.4802 15.8503 16.4802 15.6264V14.6625C16.4899 13.7473 16.4997 12.8321 16.5094 11.9169C16.0511 12.4037 15.3782 13.2215 14.8809 14.4093Z" fill="#0068FF"/>
</svg>
